<svg xmlns="http://www.w3.org/2000/svg" width="200" height="34" viewBox="0 0 200 34" fill="none"><g clip-path="url(#clip0_78_3226)"><path d="M19.2189 18.75H20.1564V19.6875H19.2189V18.75ZM15.4689 14.0625H14.5314V15H15.4689V14.0625ZM10.7814 14.0625H9.84386V15H10.7814V14.0625ZM15.4689 18.75H14.5314V19.6875H15.4689V18.75ZM9.84386 19.6875H10.7814V18.75H9.84386V19.6875ZM19.2189 15H20.1564V14.0625H19.2189V15ZM29.5314 29.0625C29.5314 29.3213 29.3218 29.5312 29.0626 29.5312H0.937613C0.678394 29.5312 0.468863 29.3213 0.468863 29.0625C0.468863 28.8037 0.678394 28.5938 0.937613 28.5938H6.09386V10.7812C6.09386 10.5234 6.3048 10.3125 6.56261 10.3125H23.4376C23.6954 10.3125 23.9064 10.5234 23.9064 10.7812V28.5938H29.0626C29.3218 28.5938 29.5314 28.8037 29.5314 29.0625ZM13.5939 15.4688C13.5939 15.7266 13.8048 15.9375 14.0626 15.9375H15.9376C16.1954 15.9375 16.4064 15.7266 16.4064 15.4688V13.5938C16.4064 13.3359 16.1954 13.125 15.9376 13.125H14.0626C13.8048 13.125 13.5939 13.3359 13.5939 13.5938V15.4688ZM13.5939 20.1562C13.5939 20.4141 13.8048 20.625 14.0626 20.625H15.9376C16.1954 20.625 16.4064 20.4141 16.4064 20.1562V18.2812C16.4064 18.0234 16.1954 17.8125 15.9376 17.8125H14.0626C13.8048 17.8125 13.5939 18.0234 13.5939 18.2812V20.1562ZM8.90636 15.4688C8.90636 15.7266 9.1173 15.9375 9.37511 15.9375H11.2501C11.5079 15.9375 11.7189 15.7266 11.7189 15.4688V13.5938C11.7189 13.3359 11.5079 13.125 11.2501 13.125H9.37511C9.1173 13.125 8.90636 13.3359 8.90636 13.5938V15.4688ZM9.37511 20.625H11.2501C11.5079 20.625 11.7189 20.4141 11.7189 20.1562V18.2812C11.7189 18.0234 11.5079 17.8125 11.2501 17.8125H9.37511C9.1173 17.8125 8.90636 18.0234 8.90636 18.2812V20.1562C8.90636 20.4141 9.1173 20.625 9.37511 20.625ZM19.2189 22.9688C19.2189 22.7109 19.0079 22.5 18.7501 22.5H11.2501C10.9923 22.5 10.7814 22.7109 10.7814 22.9688V28.5938H11.7189V23.4375H14.5314V28.5938H15.4689V23.4375H18.2814V28.5938H19.2189V22.9688ZM21.0939 18.2812C21.0939 18.0234 20.8829 17.8125 20.6251 17.8125H18.7501C18.4923 17.8125 18.2814 18.0234 18.2814 18.2812V20.1562C18.2814 20.4141 18.4923 20.625 18.7501 20.625H20.6251C20.8829 20.625 21.0939 20.4141 21.0939 20.1562V18.2812ZM21.0939 13.5938C21.0939 13.3359 20.8829 13.125 20.6251 13.125H18.7501C18.4923 13.125 18.2814 13.3359 18.2814 13.5938V15.4688C18.2814 15.7266 18.4923 15.9375 18.7501 15.9375H20.6251C20.8829 15.9375 21.0939 15.7266 21.0939 15.4688V13.5938ZM21.0939 9.375V7.96875C21.0939 7.45172 20.6734 7.03125 20.1564 7.03125H9.84386C9.32683 7.03125 8.90636 7.45172 8.90636 7.96875V9.375H21.0939ZM16.8751 1.67438H15.8396L15.4285 0.747187C15.3535 0.577969 15.1857 0.46875 15.0001 0.46875C14.8145 0.46875 14.6467 0.577969 14.5717 0.747656L14.1606 1.67484H13.1251C12.9409 1.67484 12.7745 1.78219 12.6981 1.95C12.6221 2.11734 12.6512 2.31375 12.7721 2.4525L13.5437 3.33422L13.2071 4.56469C13.157 4.74937 13.2235 4.94578 13.3759 5.06203C13.5282 5.17828 13.7368 5.18906 13.9 5.09062L15.0001 4.43109L16.0998 5.08969C16.1739 5.13422 16.2573 5.15625 16.3403 5.15625C16.4406 5.15625 16.5404 5.12437 16.6234 5.06109C16.7757 4.94531 16.8428 4.74844 16.7921 4.56375L16.4556 3.33328L17.2271 2.45156C17.3481 2.31328 17.3771 2.11688 17.3012 1.94906C17.2257 1.78219 17.0593 1.67438 16.8751 1.67438ZM10.7814 2.61188H9.74589L9.3348 1.68469C9.2598 1.51547 9.09199 1.40625 8.90636 1.40625C8.72074 1.40625 8.55293 1.51547 8.47793 1.68516L8.06683 2.61234H7.03136C6.84714 2.61234 6.68074 2.71969 6.60433 2.8875C6.52839 3.05484 6.55746 3.25125 6.67839 3.39L7.44996 4.27172L7.11339 5.50219C7.06324 5.68687 7.1298 5.88328 7.28214 5.99953C7.43449 6.11578 7.64308 6.12656 7.80621 6.02812L8.90636 5.36859L10.0061 6.02719C10.0801 6.07172 10.1635 6.09375 10.2465 6.09375C10.3468 6.09375 10.4467 6.06187 10.5296 5.99859C10.682 5.88281 10.749 5.68594 10.6984 5.50125L10.3618 4.27078L11.1334 3.38906C11.2543 3.25078 11.2834 3.05437 11.2075 2.88656C11.132 2.71969 10.9656 2.61188 10.7814 2.61188ZM4.68761 4.48687H3.65214L3.24105 3.56016C3.16605 3.39047 2.99824 3.28125 2.81261 3.28125C2.62699 3.28125 2.45918 3.39047 2.38418 3.56016L1.97308 4.48687H0.937613C0.753394 4.48687 0.586988 4.59422 0.510582 4.76203C0.434644 4.92938 0.463707 5.12578 0.584644 5.26453L1.35621 6.14625L1.01964 7.37672C0.969488 7.56141 1.03605 7.75781 1.18839 7.87406C1.34074 7.99031 1.54933 8.00109 1.71246 7.90266L2.81261 7.24359L3.9123 7.90219C3.98636 7.94672 4.0698 7.96875 4.15277 7.96875C4.25308 7.96875 4.35293 7.93688 4.43589 7.87359C4.58824 7.75781 4.65527 7.56094 4.60464 7.37625L4.26808 6.14578L5.03964 5.26406C5.16058 5.12578 5.18964 4.92938 5.11371 4.76156C5.03824 4.59469 4.87183 4.48687 4.68761 4.48687ZM22.9689 2.61188H21.9334L21.5223 1.68469C21.4473 1.51547 21.2795 1.40625 21.0939 1.40625C20.9082 1.40625 20.7404 1.51547 20.6654 1.68516L20.2543 2.61234H19.2189C19.0346 2.61234 18.8682 2.71969 18.7918 2.8875C18.7159 3.05484 18.745 3.25125 18.8659 3.39L19.6375 4.27172L19.3009 5.50219C19.2507 5.68687 19.3173 5.88328 19.4696 5.99953C19.622 6.11578 19.8306 6.12656 19.9937 6.02812L21.0939 5.36859L22.1935 6.02719C22.2676 6.07172 22.351 6.09375 22.434 6.09375C22.5343 6.09375 22.6342 6.06187 22.7171 5.99859C22.8695 5.88281 22.9365 5.68594 22.8859 5.50125L22.5493 4.27078L23.3209 3.38906C23.4418 3.25078 23.4709 3.05437 23.395 2.88656C23.3195 2.71969 23.1531 2.61188 22.9689 2.61188ZM29.4896 4.76203C29.4132 4.59469 29.2468 4.48687 29.0626 4.48687H28.0271L27.616 3.55969C27.541 3.39047 27.3732 3.28125 27.1876 3.28125C27.002 3.28125 26.8342 3.39047 26.7592 3.56016L26.3481 4.48734H25.3126C25.1284 4.48734 24.962 4.59469 24.8856 4.7625C24.8096 4.92984 24.8387 5.12625 24.9596 5.265L25.7312 6.14672L25.3946 7.37719C25.3445 7.56187 25.411 7.75828 25.5634 7.87453C25.7162 7.99031 25.9243 8.00156 26.0875 7.90313L27.1876 7.24359L28.2873 7.90219C28.3614 7.94672 28.4448 7.96875 28.5278 7.96875C28.6281 7.96875 28.7279 7.93688 28.8109 7.87359C28.9632 7.75781 29.0303 7.56094 28.9796 7.37625L28.6431 6.14578L29.4146 5.26406C29.5365 5.12625 29.5656 4.92984 29.4896 4.76203Z" fill="white"></path></g><path d="M50.768 24.616C51.7067 24.808 52.72 24.904 53.808 24.904C54.8533 24.904 56.0907 24.7973 57.52 24.584C59.3547 25.9067 61.648 27.1333 64.4 28.264C67.152 29.3947 70.0213 30.3013 73.008 30.984C76.016 31.6667 78.7787 32.008 81.296 32.008C84.24 32.008 86.576 31.7413 88.304 31.208C88.3467 31.1867 88.3893 31.2293 88.432 31.336C88.4747 31.464 88.464 31.5387 88.4 31.56C87.312 32.008 86.0107 32.4027 84.496 32.744C83.0027 33.0853 81.0507 33.256 78.64 33.256C70.0213 33.256 60.7307 30.376 50.768 24.616ZM53.712 25.384C51.728 25.384 49.9573 24.9253 48.4 24.008C46.864 23.0693 45.6693 21.8107 44.816 20.232C43.984 18.632 43.568 16.8933 43.568 15.016C43.568 12.8187 44.1227 10.9413 45.232 9.384C46.3413 7.80533 47.76 6.62133 49.488 5.832C51.2373 5.04267 53.0187 4.648 54.832 4.648C56.8587 4.648 58.64 5.128 60.176 6.088C61.712 7.02667 62.8853 8.27467 63.696 9.832C64.528 11.3893 64.944 13.0427 64.944 14.792C64.944 16.7333 64.432 18.5147 63.408 20.136C62.384 21.7573 61.008 23.0373 59.28 23.976C57.5733 24.9147 55.7173 25.384 53.712 25.384ZM54.768 24.584C55.9627 24.584 57.0293 24.2427 57.968 23.56C58.928 22.856 59.6747 21.8427 60.208 20.52C60.7413 19.176 61.008 17.576 61.008 15.72C61.008 13.7573 60.7093 12.008 60.112 10.472C59.5147 8.91467 58.6507 7.69867 57.52 6.824C56.3893 5.94933 55.0667 5.512 53.552 5.512C51.6107 5.512 50.1173 6.248 49.072 7.72C48.0267 9.17067 47.504 11.208 47.504 13.832C47.504 15.9013 47.8133 17.7573 48.432 19.4C49.072 21.0213 49.936 22.2907 51.024 23.208C52.1333 24.1253 53.3813 24.584 54.768 24.584ZM78.212 25.384C76.228 25.384 74.4573 24.9253 72.9 24.008C71.364 23.0693 70.1693 21.8107 69.316 20.232C68.484 18.632 68.068 16.8933 68.068 15.016C68.068 12.8187 68.6227 10.9413 69.732 9.384C70.8413 7.80533 72.26 6.62133 73.988 5.832C75.7373 5.04267 77.5187 4.648 79.332 4.648C81.3587 4.648 83.14 5.128 84.676 6.088C86.212 7.02667 87.3853 8.27467 88.196 9.832C89.028 11.3893 89.444 13.0427 89.444 14.792C89.444 16.7333 88.932 18.5147 87.908 20.136C86.884 21.7573 85.508 23.0373 83.78 23.976C82.0733 24.9147 80.2173 25.384 78.212 25.384ZM79.268 24.584C80.4627 24.584 81.5293 24.2427 82.468 23.56C83.428 22.856 84.1747 21.8427 84.708 20.52C85.2413 19.176 85.508 17.576 85.508 15.72C85.508 13.7573 85.2093 12.008 84.612 10.472C84.0147 8.91467 83.1507 7.69867 82.02 6.824C80.8893 5.94933 79.5667 5.512 78.052 5.512C76.1107 5.512 74.6173 6.248 73.572 7.72C72.5267 9.17067 72.004 11.208 72.004 13.832C72.004 15.9013 72.3133 17.7573 72.932 19.4C73.572 21.0213 74.436 22.2907 75.524 23.208C76.6333 24.1253 77.8813 24.584 79.268 24.584ZM95.064 5.736L95.992 5.8L95.64 20.936C95.6187 22.088 95.8427 22.9947 96.312 23.656C96.8027 24.296 97.4853 24.616 98.36 24.616C98.424 24.616 98.456 24.68 98.456 24.808C98.456 24.936 98.424 25 98.36 25C97.784 25 97.336 24.9893 97.016 24.968L95.256 24.936L93.24 24.968C92.8987 24.9893 92.44 25 91.864 25C91.8 25 91.768 24.936 91.768 24.808C91.768 24.68 91.8 24.616 91.864 24.616C92.7387 24.616 93.432 24.2853 93.944 23.624C94.456 22.9627 94.7227 22.0667 94.744 20.936L95.064 5.736ZM117.656 24.616C117.699 24.616 117.72 24.68 117.72 24.808C117.72 24.936 117.699 25 117.656 25C116.931 25 116.355 24.9893 115.928 24.968L113.56 24.936L111.16 24.968C110.755 24.9893 110.2 25 109.496 25C109.432 25 109.4 24.936 109.4 24.808C109.4 24.68 109.432 24.616 109.496 24.616C110.179 24.616 110.68 24.5627 111 24.456C111.341 24.328 111.565 24.1147 111.672 23.816C111.779 23.5173 111.811 23.048 111.768 22.408L111.032 8.2L112.664 5.64L104.504 24.776C104.461 24.8613 104.376 24.904 104.248 24.904C104.12 24.904 104.035 24.8613 103.992 24.776L95 7.656C94.5733 6.86666 94.1253 6.29067 93.656 5.928C93.208 5.56533 92.6853 5.384 92.088 5.384C92.024 5.384 91.992 5.32 91.992 5.192C91.992 5.064 92.024 5 92.088 5L93.592 5.032C93.8907 5.05333 94.2747 5.064 94.744 5.064L96.44 5.032C96.632 5.01067 96.8773 5 97.176 5C97.4533 5 97.6667 5.096 97.816 5.288C97.9653 5.48 98.2427 5.93867 98.648 6.664L105.816 20.104L104.216 22.984L111.704 5.8C111.832 5.50133 111.96 5.29867 112.088 5.192C112.237 5.064 112.429 5 112.664 5C112.856 5 113.069 5.01067 113.304 5.032C113.56 5.05333 113.848 5.064 114.168 5.064L116.056 5.032C116.355 5.01067 116.781 5 117.336 5C117.4 5 117.432 5.064 117.432 5.192C117.432 5.32 117.4 5.384 117.336 5.384C116.333 5.384 115.608 5.58667 115.16 5.992C114.712 6.39733 114.509 7.02667 114.552 7.88L115.32 22.408C115.363 23.0693 115.437 23.5493 115.544 23.848C115.672 24.1467 115.885 24.3493 116.184 24.456C116.504 24.5627 116.995 24.616 117.656 24.616ZM119.526 25C119.462 25 119.43 24.936 119.43 24.808C119.43 24.68 119.462 24.616 119.526 24.616C120.272 24.616 120.816 24.5627 121.158 24.456C121.499 24.3493 121.723 24.1467 121.83 23.848C121.958 23.528 122.022 23.048 122.022 22.408V7.592C122.022 6.952 121.968 6.48267 121.862 6.184C121.755 5.88533 121.542 5.68266 121.222 5.576C120.902 5.448 120.411 5.384 119.75 5.384C119.686 5.384 119.654 5.32 119.654 5.192C119.654 5.064 119.686 5 119.75 5H133.318C133.531 5 133.638 5.096 133.638 5.288L133.702 9.544C133.702 9.58667 133.638 9.61867 133.51 9.64C133.403 9.66133 133.339 9.64 133.318 9.576C132.976 8.33867 132.4 7.42133 131.59 6.824C130.779 6.22667 129.712 5.928 128.39 5.928H127.43C126.79 5.928 126.32 6.06667 126.022 6.344C125.723 6.62133 125.574 7.048 125.574 7.624V22.28C125.574 22.9413 125.659 23.432 125.83 23.752C126 24.072 126.32 24.296 126.79 24.424C127.259 24.552 127.995 24.616 128.998 24.616C129.04 24.616 129.062 24.68 129.062 24.808C129.062 24.936 129.04 25 128.998 25C128.123 25 127.44 24.9893 126.95 24.968L123.686 24.936L121.286 24.968C120.859 24.9893 120.272 25 119.526 25ZM131.718 18.216C131.718 17.3627 131.376 16.6907 130.694 16.2C130.032 15.688 129.083 15.432 127.845 15.432H123.878V14.536H127.878C129.115 14.536 130.054 14.3227 130.694 13.896C131.355 13.448 131.686 12.84 131.686 12.072C131.686 12.0293 131.75 12.008 131.878 12.008C132.006 12.008 132.07 12.0293 132.07 12.072L132.038 14.984C132.038 15.6667 132.048 16.1787 132.07 16.52L132.102 18.216C132.102 18.28 132.038 18.312 131.91 18.312C131.782 18.312 131.718 18.28 131.718 18.216ZM146.868 25.384C144.884 25.384 143.114 24.9253 141.556 24.008C140.02 23.0693 138.826 21.8107 137.972 20.232C137.14 18.632 136.724 16.8933 136.724 15.016C136.724 12.8187 137.279 10.9413 138.388 9.384C139.498 7.80533 140.916 6.62133 142.644 5.832C144.394 5.04267 146.175 4.648 147.988 4.648C150.015 4.648 151.796 5.128 153.332 6.088C154.868 7.02667 156.042 8.27467 156.852 9.832C157.684 11.3893 158.1 13.0427 158.1 14.792C158.1 16.7333 157.588 18.5147 156.564 20.136C155.54 21.7573 154.164 23.0373 152.436 23.976C150.73 24.9147 148.874 25.384 146.868 25.384ZM147.924 24.584C149.119 24.584 150.186 24.2427 151.124 23.56C152.084 22.856 152.831 21.8427 153.364 20.52C153.898 19.176 154.164 17.576 154.164 15.72C154.164 13.7573 153.866 12.008 153.268 10.472C152.671 8.91467 151.807 7.69867 150.676 6.824C149.546 5.94933 148.223 5.512 146.708 5.512C144.767 5.512 143.274 6.248 142.228 7.72C141.183 9.17067 140.66 11.208 140.66 13.832C140.66 15.9013 140.97 17.7573 141.588 19.4C142.228 21.0213 143.092 22.2907 144.18 23.208C145.29 24.1253 146.538 24.584 147.924 24.584ZM176.616 25C176.126 25 175.219 24.1147 173.896 22.344C172.574 20.552 170.974 18.0667 169.096 14.888L172.04 13.992C173.811 16.68 175.283 18.7813 176.456 20.296C177.651 21.8107 178.707 22.9093 179.624 23.592C180.542 24.2747 181.438 24.616 182.312 24.616C182.355 24.616 182.376 24.68 182.376 24.808C182.376 24.936 182.355 25 182.312 25H176.616ZM169.736 4.904C171.678 4.904 173.182 5.26667 174.248 5.992C175.315 6.696 175.848 7.688 175.848 8.968C175.848 10.184 175.496 11.2827 174.792 12.264C174.11 13.2453 173.214 14.0133 172.104 14.568C170.995 15.1013 169.832 15.368 168.616 15.368C167.784 15.368 167.198 15.3573 166.856 15.336V22.408C166.856 23.0693 166.91 23.5493 167.016 23.848C167.123 24.1467 167.326 24.3493 167.624 24.456C167.944 24.5627 168.446 24.616 169.128 24.616C169.171 24.616 169.192 24.68 169.192 24.808C169.192 24.936 169.171 25 169.128 25C168.424 25 167.87 24.9893 167.464 24.968L165.032 24.936L162.696 24.968C162.27 24.9893 161.694 25 160.968 25C160.904 25 160.872 24.936 160.872 24.808C160.872 24.68 160.904 24.616 160.968 24.616C161.651 24.616 162.142 24.5627 162.44 24.456C162.76 24.3493 162.974 24.1467 163.08 23.848C163.208 23.528 163.272 23.048 163.272 22.408V7.592C163.272 6.952 163.219 6.48267 163.112 6.184C163.006 5.88533 162.792 5.68266 162.472 5.576C162.152 5.448 161.662 5.384 161 5.384C160.958 5.384 160.936 5.32 160.936 5.192C160.936 5.064 160.958 5 161 5L162.696 5.032C163.678 5.07467 164.456 5.096 165.032 5.096C165.758 5.096 166.515 5.064 167.304 5C167.582 4.97867 167.923 4.95733 168.328 4.936C168.755 4.91467 169.224 4.904 169.736 4.904ZM172.2 10.184C172.2 8.43467 171.944 7.22933 171.432 6.568C170.92 5.90667 170.184 5.576 169.224 5.576C168.371 5.576 167.763 5.736 167.4 6.056C167.038 6.376 166.856 6.90933 166.856 7.656V14.44C167.368 14.5253 167.987 14.568 168.712 14.568C169.95 14.568 170.835 14.2267 171.368 13.544C171.923 12.84 172.2 11.72 172.2 10.184ZM186.479 5.736C183.94 5.736 182.116 7.38933 181.007 10.696C180.986 10.76 180.922 10.792 180.815 10.792C180.708 10.7707 180.655 10.728 180.655 10.664C180.74 9.81067 180.836 8.712 180.943 7.368C181.05 6.00267 181.103 4.97867 181.103 4.296C181.103 4.18933 181.156 4.136 181.263 4.136C181.391 4.136 181.455 4.18933 181.455 4.296C181.455 4.76533 182.063 5 183.279 5C185.114 5.064 187.258 5.096 189.711 5.096C190.97 5.096 192.303 5.07467 193.711 5.032L195.887 5C196.698 5 197.284 4.94667 197.647 4.84C198.031 4.73333 198.276 4.52 198.383 4.2C198.404 4.11467 198.468 4.072 198.575 4.072C198.703 4.072 198.767 4.11467 198.767 4.2C198.703 4.84 198.628 5.864 198.543 7.272C198.479 8.68 198.447 9.81067 198.447 10.664C198.447 10.728 198.394 10.76 198.287 10.76C198.18 10.76 198.116 10.728 198.095 10.664C197.775 9.02133 197.178 7.79467 196.303 6.984C195.428 6.152 194.351 5.736 193.071 5.736C192.452 5.736 192.036 5.87466 191.823 6.152C191.631 6.408 191.535 6.90933 191.535 7.656V22.408C191.535 23.0693 191.599 23.5493 191.727 23.848C191.855 24.1467 192.1 24.3493 192.463 24.456C192.826 24.5627 193.402 24.616 194.191 24.616C194.255 24.616 194.287 24.68 194.287 24.808C194.287 24.936 194.255 25 194.191 25C193.423 25 192.815 24.9893 192.367 24.968L189.711 24.936L187.119 24.968C186.671 24.9893 186.052 25 185.263 25C185.199 25 185.167 24.936 185.167 24.808C185.167 24.68 185.199 24.616 185.263 24.616C186.031 24.616 186.596 24.5627 186.959 24.456C187.343 24.3493 187.599 24.1467 187.727 23.848C187.876 23.528 187.951 23.048 187.951 22.408V7.592C187.951 6.86667 187.855 6.376 187.663 6.12C187.471 5.864 187.076 5.736 186.479 5.736Z" fill="white"></path><defs><clipPath id="clip0_78_3226"><rect width="30" height="30" fill="white"></rect></clipPath></defs></svg>