<svg xmlns="http://www.w3.org/2000/svg" width="14" height="16" viewBox="0 0 14 16" fill="none"><path d="M11 4H14V13.5C14 14.9062 12.875 16 11.5 16H2.5C1.09375 16 0 14.9062 0 13.5V4H3C3 1.8125 4.78125 0 7 0C9.1875 0 11 1.8125 11 4ZM7 1.5C5.59375 1.5 4.5 2.625 4.5 4H9.5C9.5 2.625 8.375 1.5 7 1.5ZM12.5 13.5V5.5H11V6.75C11 7.1875 10.6562 7.5 10.25 7.5C9.8125 7.5 9.5 7.1875 9.5 6.75V5.5H4.5V6.75C4.5 7.1875 4.15625 7.5 3.75 7.5C3.3125 7.5 3 7.1875 3 6.75V5.5H1.5V13.5C1.5 14.0625 1.9375 14.5 2.5 14.5H11.5C12.0312 14.5 12.5 14.0625 12.5 13.5Z" fill="#1D1B1A"></path></svg>