<svg xmlns="http://www.w3.org/2000/svg" width="16" height="16" viewBox="0 0 16 16" fill="none"><path d="M15.5 8C15.75 8 16 8.25 16 8.5V9C16 9.28125 15.75 9.5 15.5 9.5H15V12C14.9688 12.9062 14.5938 13.6875 14 14.25V15.5C14 15.7812 13.75 16 13.5 16H13C12.7188 16 12.5 15.7812 12.5 15.5V14.9688C12.3125 15 12.1562 15 12 15H4C3.8125 15 3.65625 15 3.5 14.9688V15.5C3.5 15.7812 3.25 16 3 16H2.5C2.21875 16 2 15.7812 2 15.5V14.25C1.375 13.6875 1 12.9062 1 12V9.5H0.5C0.21875 9.5 0 9.28125 0 9V8.5C0 8.25 0.21875 8 0.5 8H1V2.1875C1 0.96875 1.96875 0 3.15625 0C3.75 0 4.28125 0.25 4.6875 0.65625L5.0625 1.03125C5.375 0.875 5.71875 0.75 6.125 0.75C6.78125 0.75 7.375 1.0625 7.8125 1.5C7.90625 1.40625 8 1.375 8.125 1.375C8.28125 1.375 8.40625 1.4375 8.5 1.5L8.84375 1.875C8.9375 1.96875 9 2.09375 9 2.21875C9 2.375 8.9375 2.5 8.84375 2.5625L5.53125 5.875C5.46875 5.96875 5.34375 6 5.1875 6C5.0625 6 4.9375 5.96875 4.84375 5.875L4.5 5.5C4.40625 5.4375 4.34375 5.3125 4.34375 5.15625C4.34375 5.03125 4.375 4.9375 4.46875 4.84375C4.03125 4.40625 3.75 3.8125 3.75 3.15625C3.75 2.75 3.84375 2.40625 4 2.09375L3.625 1.71875C3.5 1.59375 3.34375 1.53125 3.15625 1.53125C2.78125 1.53125 2.5 1.8125 2.5 2.1875V8H15.5ZM5.5625 3.78125C6 3.34375 6.40625 2.9375 6.75 2.59375C6.59375 2.40625 6.375 2.25 6.125 2.25C5.625 2.25 5.25 2.65625 5.25 3.125C5.25 3.40625 5.375 3.625 5.5625 3.78125ZM13.5 12V9.5H2.5V12C2.5 12.8438 3.15625 13.5 4 13.5H12C12.8125 13.5 13.4688 12.8438 13.5 12Z" fill="#AB6034"></path></svg>