<svg xmlns="http://www.w3.org/2000/svg" width="16" height="14" viewBox="0 0 16 14" fill="none"><path d="M2.5 4V5H1V1C1 0.46875 1.4375 0 2 0H14C14.5312 0 15 0.46875 15 1V5H13.5V4C13.5 3.46875 13.0312 3 12.5 3H9.5C8.9375 3 8.5 3.46875 8.5 4V5H7.5V4C7.5 3.46875 7.03125 3 6.5 3H3.5C2.9375 3 2.5 3.46875 2.5 4ZM14 6C15.0938 6 16 6.90625 16 8V13.5C16 13.7812 15.75 14 15.5 14H15C14.7188 14 14.5 13.7812 14.5 13.5V12H1.5V13.5C1.5 13.7812 1.25 14 1 14H0.5C0.21875 14 0 13.7812 0 13.5V8C0 6.90625 0.875 6 2 6H14ZM14.5 10.5V8C14.5 7.75 14.25 7.5 14 7.5H2C1.71875 7.5 1.5 7.75 1.5 8V10.5H14.5Z" fill="#AB6034"></path></svg>