<svg xmlns="http://www.w3.org/2000/svg" width="16" height="16" viewBox="0 0 16 16" fill="none"><path d="M14.0625 9.28125L16 12.8438L15.75 14.9062C15.6875 15.3125 15.4688 15.6562 15.125 15.8438C14.9375 15.9688 14.7188 16 14.5 16C14.3438 16 14.1562 15.9688 14 15.9062L12.0938 15.0938L10.1562 11.5C9.4375 11.6562 8.71875 11.75 8 11.75C7.25 11.75 6.53125 11.6562 5.8125 11.4688L3.875 15.0938L1.96875 15.9062C1.8125 15.9688 1.625 16 1.46875 16C1.25 16 1.03125 15.9688 0.84375 15.8438C0.5 15.6562 0.28125 15.3125 0.21875 14.9062L0 12.8438L1.9375 9.25C1.46875 8.8125 1.0625 8.375 0.6875 7.84375C0.53125 7.59375 0.625 7.28125 0.875 7.125L1.3125 6.875C1.53125 6.75 1.8125 6.8125 1.96875 7.03125C2.1875 7.34375 2.40625 7.625 2.65625 7.90625L5.03125 3.46875C5.03125 3.3125 5 3.15625 5 3C5 1.34375 6.34375 0 8 0C9.625 0 10.9688 1.34375 10.9688 3C10.9688 3.15625 10.9688 3.3125 10.9375 3.46875L13.3125 7.90625C13.5625 7.625 13.7812 7.34375 14 7.03125C14.1562 6.8125 14.4375 6.75 14.6562 6.875L15.0938 7.125C15.3438 7.28125 15.4375 7.59375 15.2812 7.84375C14.9062 8.375 14.5 8.84375 14.0625 9.28125ZM8 1.5C7.15625 1.5 6.5 2.1875 6.5 3C6.5 3.84375 7.15625 4.5 8 4.5C8.8125 4.5 9.46875 3.84375 9.46875 3C9.46875 2.1875 8.8125 1.5 8 1.5ZM2.8125 13.9062L7.125 5.875C6.65625 5.71875 6.1875 5.46875 5.84375 5.125L1.53125 13.1562L1.6875 14.4062L2.8125 13.9062ZM8 10.25C8.46875 10.25 8.9375 10.1875 9.40625 10.0938L8 7.46875L6.5625 10.125C7.03125 10.2188 7.5 10.25 8 10.25ZM8.84375 5.875L10.875 9.65625C11.3125 9.4375 11.75 9.21875 12.1562 8.9375L10.125 5.125C9.78125 5.46875 9.34375 5.71875 8.84375 5.875ZM14.2812 14.4062L14.4375 13.1562L12.875 10.25C12.4688 10.5312 12.0312 10.75 11.5625 10.9688L13.1562 13.9062L14.2812 14.4062Z" fill="#AB6034"></path></svg>