<svg xmlns="http://www.w3.org/2000/svg" width="55" height="30" viewBox="0 0 55 30" fill="none"><rect width="55" height="30" rx="15" fill="#AB6034"></rect><path d="M26.9609 9.81641C27.0703 9.67969 27.2891 9.67969 27.4258 9.81641L33.1406 15.5312C33.2773 15.668 33.2773 15.8594 33.1406 15.9961L27.4258 21.7109C27.2891 21.8477 27.0703 21.8477 26.9609 21.7109L26.4141 21.1914C26.2773 21.0547 26.2773 20.8359 26.4141 20.7266L30.6523 16.4609H21.3281C21.1367 16.4609 21 16.3242 21 16.1328V15.3672C21 15.2031 21.1367 15.0391 21.3281 15.0391H30.6523L26.4141 10.8008C26.2773 10.6914 26.2773 10.4727 26.4141 10.3359L26.9609 9.81641Z" fill="white"></path></svg>