<svg xmlns="http://www.w3.org/2000/svg" width="1920" height="1089" viewBox="0 0 1920 1089" fill="none"><path d="M0 687.5V1089H456C456 771.4 151.167 688.667 0 687.5Z" fill="url(#paint0_linear_58_79)"></path><path d="M1920 401.5L1920 0L1464 3.98648e-05C1464 317.6 1768.83 400.333 1920 401.5Z" fill="url(#paint1_linear_58_79)"></path><path d="M0 591V1089H566C566 695.065 187.632 592.447 0 591Z" fill="url(#paint2_linear_58_79)"></path><path d="M1920 498L1920 0L1354 4.94813e-05C1354 393.935 1732.37 496.553 1920 498Z" fill="url(#paint3_linear_58_79)"></path><defs><linearGradient id="paint0_linear_58_79" x1="228" y1="741" x2="228" y2="1089" gradientUnits="userSpaceOnUse"><stop stop-color="#AB6034" stop-opacity="0"></stop><stop offset="1" stop-color="#AB6034" stop-opacity="0.15"></stop></linearGradient><linearGradient id="paint1_linear_58_79" x1="1692" y1="348" x2="1692" y2="1.99324e-05" gradientUnits="userSpaceOnUse"><stop stop-color="#AB6034" stop-opacity="0.15"></stop><stop offset="1" stop-color="#AB6034" stop-opacity="0"></stop></linearGradient><linearGradient id="paint2_linear_58_79" x1="283" y1="657.359" x2="283" y2="1089" gradientUnits="userSpaceOnUse"><stop stop-color="#AB6034" stop-opacity="0"></stop><stop offset="1" stop-color="#AB6034" stop-opacity="0.15"></stop></linearGradient><linearGradient id="paint3_linear_58_79" x1="1637" y1="431.641" x2="1637" y2="2.47406e-05" gradientUnits="userSpaceOnUse"><stop stop-color="#AB6034" stop-opacity="0.15"></stop><stop offset="1" stop-color="#AB6034" stop-opacity="0"></stop></linearGradient></defs></svg>