<svg xmlns="http://www.w3.org/2000/svg" width="41" height="36" viewBox="0 0 41 36" fill="none"><path d="M27.8828 15.6875C27.4727 15.6875 27.0625 15.2773 27.0625 14.8672V12.2012C27.0625 11.791 27.4727 11.3125 27.8828 11.3125H30.5488C30.959 11.3125 31.4375 11.791 31.4375 12.2012V14.8672C31.4375 15.2773 30.959 15.6875 30.5488 15.6875H27.8828ZM19.1328 9.125C18.7227 9.125 18.3125 8.71484 18.3125 8.30469V5.63867C18.3125 5.22852 18.7227 4.75 19.1328 4.75H21.7988C22.209 4.75 22.6875 5.22852 22.6875 5.63867V8.30469C22.6875 8.71484 22.209 9.125 21.7988 9.125H19.1328ZM27.8828 9.125C27.4727 9.125 27.0625 8.71484 27.0625 8.30469V5.63867C27.0625 5.22852 27.4727 4.75 27.8828 4.75H30.5488C30.959 4.75 31.4375 5.22852 31.4375 5.63867V8.30469C31.4375 8.71484 30.959 9.125 30.5488 9.125H27.8828ZM10.3828 9.125C9.97266 9.125 9.5625 8.71484 9.5625 8.30469V5.63867C9.5625 5.22852 9.97266 4.75 10.3828 4.75H13.0488C13.459 4.75 13.9375 5.22852 13.9375 5.63867V8.30469C13.9375 8.71484 13.459 9.125 13.0488 9.125H10.3828ZM19.1328 15.6875C18.7227 15.6875 18.3125 15.2773 18.3125 14.8672V12.2012C18.3125 11.791 18.7227 11.3125 19.1328 11.3125H21.7988C22.209 11.3125 22.6875 11.791 22.6875 12.2012V14.8672C22.6875 15.2773 22.209 15.6875 21.7988 15.6875H19.1328ZM39.6406 2.5625H38V33.1875H39.6406C39.9141 33.1875 40.1875 33.4609 40.1875 33.7344V34.8281C40.1875 35.1699 39.9141 35.375 39.6406 35.375H1.35938C1.01758 35.375 0.8125 35.1699 0.8125 34.8281V33.7344C0.8125 33.4609 1.01758 33.1875 1.35938 33.1875H2.93164V2.5625H1.35938C1.01758 2.5625 0.8125 2.35742 0.8125 2.01562V0.921875C0.8125 0.648438 1.01758 0.375 1.35938 0.375H39.6406C39.9141 0.375 40.1875 0.648438 40.1875 0.921875V2.01562C40.1875 2.35742 39.9141 2.5625 39.6406 2.5625ZM22.6875 33.1875V27.7188C22.6875 27.1719 22.1406 26.625 21.5938 26.625H19.4062C18.791 26.625 18.3125 27.1719 18.3125 27.7188V33.1875H22.6875ZM35.8125 33.1875V2.5625H5.11914V33.1875H16.125V27.7188C16.125 25.9414 17.5605 24.4375 19.4062 24.4375H21.5938C23.3711 24.4375 24.875 25.9414 24.875 27.7188V33.1875H35.8125ZM10.3828 15.6875C9.97266 15.6875 9.5625 15.2773 9.5625 14.8672V12.2012C9.5625 11.791 9.97266 11.3125 10.3828 11.3125H13.0488C13.459 11.3125 13.9375 11.791 13.9375 12.2012V14.8672C13.9375 15.2773 13.459 15.6875 13.0488 15.6875H10.3828ZM12.2285 26.4883C11.8867 26.4883 11.6816 26.1465 11.75 25.873C12.5703 21.9082 16.2617 18.9688 20.5 18.9688C24.6699 18.9688 28.3613 21.9082 29.1816 25.873C29.25 26.1465 29.0449 26.4883 28.7031 26.4883L27.6094 26.625C27.3359 26.6934 27.0625 26.4883 26.9941 26.2148C26.3105 23.2754 23.5762 21.1562 20.5 21.1562C17.3555 21.1562 14.6211 23.2754 13.9375 26.2148C13.8691 26.4883 13.5957 26.6934 13.3223 26.625L12.2285 26.4883Z" fill="white"></path></svg>