<svg width="80" height="80" viewBox="0 0 80 80" fill="none" xmlns="http://www.w3.org/2000/svg">
<rect width="80" height="80" rx="12" fill="#AB6034"/>
<g clip-path="url(#clip0_135_108)">
<path d="M45.2189 33.75H46.1564V34.6875H45.2189V33.75ZM41.4689 29.0625H40.5314V30H41.4689V29.0625ZM36.7814 29.0625H35.8439V30H36.7814V29.0625ZM41.4689 33.75H40.5314V34.6875H41.4689V33.75ZM35.8439 34.6875H36.7814V33.75H35.8439V34.6875ZM45.2189 30H46.1564V29.0625H45.2189V30ZM55.5314 44.0625C55.5314 44.3213 55.3218 44.5312 55.0626 44.5312H26.9376C26.6784 44.5312 26.4689 44.3213 26.4689 44.0625C26.4689 43.8037 26.6784 43.5938 26.9376 43.5938H32.0939V25.7812C32.0939 25.5234 32.3048 25.3125 32.5626 25.3125H49.4376C49.6954 25.3125 49.9064 25.5234 49.9064 25.7812V43.5938H55.0626C55.3218 43.5938 55.5314 43.8037 55.5314 44.0625ZM39.5939 30.4688C39.5939 30.7266 39.8048 30.9375 40.0626 30.9375H41.9376C42.1954 30.9375 42.4064 30.7266 42.4064 30.4688V28.5938C42.4064 28.3359 42.1954 28.125 41.9376 28.125H40.0626C39.8048 28.125 39.5939 28.3359 39.5939 28.5938V30.4688ZM39.5939 35.1562C39.5939 35.4141 39.8048 35.625 40.0626 35.625H41.9376C42.1954 35.625 42.4064 35.4141 42.4064 35.1562V33.2812C42.4064 33.0234 42.1954 32.8125 41.9376 32.8125H40.0626C39.8048 32.8125 39.5939 33.0234 39.5939 33.2812V35.1562ZM34.9064 30.4688C34.9064 30.7266 35.1173 30.9375 35.3751 30.9375H37.2501C37.5079 30.9375 37.7189 30.7266 37.7189 30.4688V28.5938C37.7189 28.3359 37.5079 28.125 37.2501 28.125H35.3751C35.1173 28.125 34.9064 28.3359 34.9064 28.5938V30.4688ZM35.3751 35.625H37.2501C37.5079 35.625 37.7189 35.4141 37.7189 35.1562V33.2812C37.7189 33.0234 37.5079 32.8125 37.2501 32.8125H35.3751C35.1173 32.8125 34.9064 33.0234 34.9064 33.2812V35.1562C34.9064 35.4141 35.1173 35.625 35.3751 35.625ZM45.2189 37.9688C45.2189 37.7109 45.0079 37.5 44.7501 37.5H37.2501C36.9923 37.5 36.7814 37.7109 36.7814 37.9688V43.5938H37.7189V38.4375H40.5314V43.5938H41.4689V38.4375H44.2814V43.5938H45.2189V37.9688ZM47.0939 33.2812C47.0939 33.0234 46.8829 32.8125 46.6251 32.8125H44.7501C44.4923 32.8125 44.2814 33.0234 44.2814 33.2812V35.1562C44.2814 35.4141 44.4923 35.625 44.7501 35.625H46.6251C46.8829 35.625 47.0939 35.4141 47.0939 35.1562V33.2812ZM47.0939 28.5938C47.0939 28.3359 46.8829 28.125 46.6251 28.125H44.7501C44.4923 28.125 44.2814 28.3359 44.2814 28.5938V30.4688C44.2814 30.7266 44.4923 30.9375 44.7501 30.9375H46.6251C46.8829 30.9375 47.0939 30.7266 47.0939 30.4688V28.5938ZM47.0939 24.375V22.9688C47.0939 22.4517 46.6734 22.0312 46.1564 22.0312H35.8439C35.3268 22.0312 34.9064 22.4517 34.9064 22.9688V24.375H47.0939ZM42.8751 16.6744H41.8396L41.4285 15.7472C41.3535 15.578 41.1857 15.4688 41.0001 15.4688C40.8145 15.4688 40.6467 15.578 40.5717 15.7477L40.1606 16.6748H39.1251C38.9409 16.6748 38.7745 16.7822 38.6981 16.95C38.6221 17.1173 38.6512 17.3137 38.7721 17.4525L39.5437 18.3342L39.2071 19.5647C39.157 19.7494 39.2235 19.9458 39.3759 20.062C39.5282 20.1783 39.7368 20.1891 39.9 20.0906L41.0001 19.4311L42.0998 20.0897C42.1739 20.1342 42.2573 20.1562 42.3403 20.1562C42.4406 20.1562 42.5404 20.1244 42.6234 20.0611C42.7757 19.9453 42.8428 19.7484 42.7921 19.5638L42.4556 18.3333L43.2271 17.4516C43.3481 17.3133 43.3771 17.1169 43.3012 16.9491C43.2257 16.7822 43.0593 16.6744 42.8751 16.6744ZM36.7814 17.6119H35.7459L35.3348 16.6847C35.2598 16.5155 35.092 16.4062 34.9064 16.4062C34.7207 16.4062 34.5529 16.5155 34.4779 16.6852L34.0668 17.6123H33.0314C32.8471 17.6123 32.6807 17.7197 32.6043 17.8875C32.5284 18.0548 32.5575 18.2513 32.6784 18.39L33.45 19.2717L33.1134 20.5022C33.0632 20.6869 33.1298 20.8833 33.2821 20.9995C33.4345 21.1158 33.6431 21.1266 33.8062 21.0281L34.9064 20.3686L36.0061 21.0272C36.0801 21.0717 36.1635 21.0938 36.2465 21.0938C36.3468 21.0938 36.4467 21.0619 36.5296 20.9986C36.682 20.8828 36.749 20.6859 36.6984 20.5013L36.3618 19.2708L37.1334 18.3891C37.2543 18.2508 37.2834 18.0544 37.2075 17.8866C37.132 17.7197 36.9656 17.6119 36.7814 17.6119ZM30.6876 19.4869H29.6521L29.2411 18.5602C29.1661 18.3905 28.9982 18.2812 28.8126 18.2812C28.627 18.2812 28.4592 18.3905 28.3842 18.5602L27.9731 19.4869H26.9376C26.7534 19.4869 26.587 19.5942 26.5106 19.762C26.4346 19.9294 26.4637 20.1258 26.5846 20.2645L27.3562 21.1463L27.0196 22.3767C26.9695 22.5614 27.0361 22.7578 27.1884 22.8741C27.3407 22.9903 27.5493 23.0011 27.7125 22.9027L28.8126 22.2436L29.9123 22.9022C29.9864 22.9467 30.0698 22.9688 30.1528 22.9688C30.2531 22.9688 30.3529 22.9369 30.4359 22.8736C30.5882 22.7578 30.6553 22.5609 30.6046 22.3763L30.2681 21.1458L31.0396 20.2641C31.1606 20.1258 31.1896 19.9294 31.1137 19.7616C31.0382 19.5947 30.8718 19.4869 30.6876 19.4869ZM48.9689 17.6119H47.9334L47.5223 16.6847C47.4473 16.5155 47.2795 16.4062 47.0939 16.4062C46.9082 16.4062 46.7404 16.5155 46.6654 16.6852L46.2543 17.6123H45.2189C45.0346 17.6123 44.8682 17.7197 44.7918 17.8875C44.7159 18.0548 44.745 18.2513 44.8659 18.39L45.6375 19.2717L45.3009 20.5022C45.2507 20.6869 45.3173 20.8833 45.4696 20.9995C45.622 21.1158 45.8306 21.1266 45.9937 21.0281L47.0939 20.3686L48.1935 21.0272C48.2676 21.0717 48.351 21.0938 48.434 21.0938C48.5343 21.0938 48.6342 21.0619 48.7171 20.9986C48.8695 20.8828 48.9365 20.6859 48.8859 20.5013L48.5493 19.2708L49.3209 18.3891C49.4418 18.2508 49.4709 18.0544 49.395 17.8866C49.3195 17.7197 49.1531 17.6119 48.9689 17.6119ZM55.4896 19.762C55.4132 19.5947 55.2468 19.4869 55.0626 19.4869H54.0271L53.616 18.5597C53.541 18.3905 53.3732 18.2812 53.1876 18.2812C53.002 18.2812 52.8342 18.3905 52.7592 18.5602L52.3481 19.4873H51.3126C51.1284 19.4873 50.962 19.5947 50.8856 19.7625C50.8096 19.9298 50.8387 20.1263 50.9596 20.265L51.7312 21.1467L51.3946 22.3772C51.3445 22.5619 51.411 22.7583 51.5634 22.8745C51.7162 22.9903 51.9243 23.0016 52.0875 22.9031L53.1876 22.2436L54.2873 22.9022C54.3614 22.9467 54.4448 22.9688 54.5278 22.9688C54.6281 22.9688 54.7279 22.9369 54.8109 22.8736C54.9632 22.7578 55.0303 22.5609 54.9796 22.3763L54.6431 21.1458L55.4146 20.2641C55.5365 20.1262 55.5656 19.9298 55.4896 19.762Z" fill="white"/>
</g>
<path d="M13.6747 63.856C14.0267 63.928 14.4067 63.964 14.8147 63.964C15.2067 63.964 15.6707 63.924 16.2067 63.844C16.8947 64.34 17.7547 64.8 18.7867 65.224C19.8187 65.648 20.8947 65.988 22.0147 66.244C23.1427 66.5 24.1787 66.628 25.1227 66.628C26.2267 66.628 27.1027 66.528 27.7507 66.328C27.7667 66.32 27.7827 66.336 27.7987 66.376C27.8147 66.424 27.8107 66.452 27.7867 66.46C27.3787 66.628 26.8907 66.776 26.3227 66.904C25.7627 67.032 25.0307 67.096 24.1267 67.096C20.8947 67.096 17.4107 66.016 13.6747 63.856ZM14.7787 64.144C14.0347 64.144 13.3707 63.972 12.7867 63.628C12.2107 63.276 11.7627 62.804 11.4427 62.212C11.1307 61.612 10.9747 60.96 10.9747 60.256C10.9747 59.432 11.1827 58.728 11.5987 58.144C12.0147 57.552 12.5467 57.108 13.1947 56.812C13.8507 56.516 14.5187 56.368 15.1987 56.368C15.9587 56.368 16.6267 56.548 17.2027 56.908C17.7787 57.26 18.2187 57.728 18.5227 58.312C18.8347 58.896 18.9907 59.516 18.9907 60.172C18.9907 60.9 18.7987 61.568 18.4147 62.176C18.0307 62.784 17.5147 63.264 16.8667 63.616C16.2267 63.968 15.5307 64.144 14.7787 64.144ZM15.1747 63.844C15.6227 63.844 16.0227 63.716 16.3747 63.46C16.7347 63.196 17.0147 62.816 17.2147 62.32C17.4147 61.816 17.5147 61.216 17.5147 60.52C17.5147 59.784 17.4027 59.128 17.1787 58.552C16.9547 57.968 16.6307 57.512 16.2067 57.184C15.7827 56.856 15.2867 56.692 14.7187 56.692C13.9907 56.692 13.4307 56.968 13.0387 57.52C12.6467 58.064 12.4507 58.828 12.4507 59.812C12.4507 60.588 12.5667 61.284 12.7987 61.9C13.0387 62.508 13.3627 62.984 13.7707 63.328C14.1867 63.672 14.6547 63.844 15.1747 63.844ZM23.9662 64.144C23.2222 64.144 22.5582 63.972 21.9742 63.628C21.3982 63.276 20.9502 62.804 20.6302 62.212C20.3182 61.612 20.1622 60.96 20.1622 60.256C20.1622 59.432 20.3702 58.728 20.7862 58.144C21.2022 57.552 21.7342 57.108 22.3822 56.812C23.0382 56.516 23.7062 56.368 24.3862 56.368C25.1462 56.368 25.8142 56.548 26.3902 56.908C26.9662 57.26 27.4062 57.728 27.7102 58.312C28.0222 58.896 28.1782 59.516 28.1782 60.172C28.1782 60.9 27.9862 61.568 27.6022 62.176C27.2182 62.784 26.7022 63.264 26.0542 63.616C25.4142 63.968 24.7182 64.144 23.9662 64.144ZM24.3622 63.844C24.8102 63.844 25.2102 63.716 25.5622 63.46C25.9222 63.196 26.2022 62.816 26.4022 62.32C26.6022 61.816 26.7022 61.216 26.7022 60.52C26.7022 59.784 26.5902 59.128 26.3662 58.552C26.1422 57.968 25.8182 57.512 25.3942 57.184C24.9702 56.856 24.4742 56.692 23.9062 56.692C23.1782 56.692 22.6182 56.968 22.2262 57.52C21.8342 58.064 21.6382 58.828 21.6382 59.812C21.6382 60.588 21.7542 61.284 21.9862 61.9C22.2262 62.508 22.5502 62.984 22.9582 63.328C23.3742 63.672 23.8422 63.844 24.3622 63.844ZM30.2857 56.776L30.6337 56.8L30.5017 62.476C30.4937 62.908 30.5777 63.248 30.7537 63.496C30.9377 63.736 31.1937 63.856 31.5217 63.856C31.5457 63.856 31.5577 63.88 31.5577 63.928C31.5577 63.976 31.5457 64 31.5217 64C31.3057 64 31.1377 63.996 31.0177 63.988L30.3577 63.976L29.6017 63.988C29.4737 63.996 29.3017 64 29.0857 64C29.0617 64 29.0497 63.976 29.0497 63.928C29.0497 63.88 29.0617 63.856 29.0857 63.856C29.4137 63.856 29.6737 63.732 29.8657 63.484C30.0577 63.236 30.1577 62.9 30.1657 62.476L30.2857 56.776ZM38.7577 63.856C38.7737 63.856 38.7817 63.88 38.7817 63.928C38.7817 63.976 38.7737 64 38.7577 64C38.4857 64 38.2697 63.996 38.1097 63.988L37.2217 63.976L36.3217 63.988C36.1697 63.996 35.9617 64 35.6977 64C35.6737 64 35.6617 63.976 35.6617 63.928C35.6617 63.88 35.6737 63.856 35.6977 63.856C35.9537 63.856 36.1417 63.836 36.2617 63.796C36.3897 63.748 36.4737 63.668 36.5137 63.556C36.5537 63.444 36.5657 63.268 36.5497 63.028L36.2737 57.7L36.8857 56.74L33.8257 63.916C33.8097 63.948 33.7777 63.964 33.7297 63.964C33.6817 63.964 33.6497 63.948 33.6337 63.916L30.2617 57.496C30.1017 57.2 29.9337 56.984 29.7577 56.848C29.5897 56.712 29.3937 56.644 29.1697 56.644C29.1457 56.644 29.1337 56.62 29.1337 56.572C29.1337 56.524 29.1457 56.5 29.1697 56.5L29.7337 56.512C29.8457 56.52 29.9897 56.524 30.1657 56.524L30.8017 56.512C30.8737 56.504 30.9657 56.5 31.0777 56.5C31.1817 56.5 31.2617 56.536 31.3177 56.608C31.3737 56.68 31.4777 56.852 31.6297 57.124L34.3177 62.164L33.7177 63.244L36.5257 56.8C36.5737 56.688 36.6217 56.612 36.6697 56.572C36.7257 56.524 36.7977 56.5 36.8857 56.5C36.9577 56.5 37.0377 56.504 37.1257 56.512C37.2217 56.52 37.3297 56.524 37.4497 56.524L38.1577 56.512C38.2697 56.504 38.4297 56.5 38.6377 56.5C38.6617 56.5 38.6737 56.524 38.6737 56.572C38.6737 56.62 38.6617 56.644 38.6377 56.644C38.2617 56.644 37.9897 56.72 37.8217 56.872C37.6537 57.024 37.5777 57.26 37.5937 57.58L37.8817 63.028C37.8977 63.276 37.9257 63.456 37.9657 63.568C38.0137 63.68 38.0937 63.756 38.2057 63.796C38.3257 63.836 38.5097 63.856 38.7577 63.856ZM39.4588 64C39.4348 64 39.4228 63.976 39.4228 63.928C39.4228 63.88 39.4348 63.856 39.4588 63.856C39.7388 63.856 39.9428 63.836 40.0708 63.796C40.1988 63.756 40.2828 63.68 40.3228 63.568C40.3708 63.448 40.3948 63.268 40.3948 63.028V57.472C40.3948 57.232 40.3748 57.056 40.3348 56.944C40.2948 56.832 40.2148 56.756 40.0948 56.716C39.9748 56.668 39.7908 56.644 39.5428 56.644C39.5188 56.644 39.5068 56.62 39.5068 56.572C39.5068 56.524 39.5188 56.5 39.5428 56.5H44.6308C44.7108 56.5 44.7508 56.536 44.7508 56.608L44.7748 58.204C44.7748 58.22 44.7508 58.232 44.7028 58.24C44.6628 58.248 44.6388 58.24 44.6308 58.216C44.5028 57.752 44.2868 57.408 43.9828 57.184C43.6788 56.96 43.2788 56.848 42.7828 56.848H42.4228C42.1828 56.848 42.0068 56.9 41.8948 57.004C41.7828 57.108 41.7268 57.268 41.7268 57.484V62.98C41.7268 63.228 41.7588 63.412 41.8228 63.532C41.8868 63.652 42.0068 63.736 42.1828 63.784C42.3588 63.832 42.6348 63.856 43.0108 63.856C43.0268 63.856 43.0348 63.88 43.0348 63.928C43.0348 63.976 43.0268 64 43.0108 64C42.6828 64 42.4268 63.996 42.2428 63.988L41.0188 63.976L40.1188 63.988C39.9588 63.996 39.7388 64 39.4588 64ZM44.0308 61.456C44.0308 61.136 43.9028 60.884 43.6468 60.7C43.3988 60.508 43.0428 60.412 42.5788 60.412H41.0908V60.076H42.5908C43.0548 60.076 43.4068 59.996 43.6468 59.836C43.8948 59.668 44.0188 59.44 44.0188 59.152C44.0188 59.136 44.0428 59.128 44.0908 59.128C44.1388 59.128 44.1628 59.136 44.1628 59.152L44.1508 60.244C44.1508 60.5 44.1548 60.692 44.1628 60.82L44.1748 61.456C44.1748 61.48 44.1508 61.492 44.1028 61.492C44.0548 61.492 44.0308 61.48 44.0308 61.456ZM49.7123 64.144C48.9683 64.144 48.3043 63.972 47.7203 63.628C47.1443 63.276 46.6963 62.804 46.3763 62.212C46.0643 61.612 45.9083 60.96 45.9083 60.256C45.9083 59.432 46.1163 58.728 46.5323 58.144C46.9483 57.552 47.4803 57.108 48.1283 56.812C48.7843 56.516 49.4523 56.368 50.1323 56.368C50.8923 56.368 51.5603 56.548 52.1363 56.908C52.7123 57.26 53.1523 57.728 53.4563 58.312C53.7683 58.896 53.9243 59.516 53.9243 60.172C53.9243 60.9 53.7323 61.568 53.3483 62.176C52.9643 62.784 52.4483 63.264 51.8003 63.616C51.1603 63.968 50.4643 64.144 49.7123 64.144ZM50.1083 63.844C50.5563 63.844 50.9563 63.716 51.3083 63.46C51.6683 63.196 51.9483 62.816 52.1483 62.32C52.3483 61.816 52.4483 61.216 52.4483 60.52C52.4483 59.784 52.3363 59.128 52.1123 58.552C51.8883 57.968 51.5643 57.512 51.1403 57.184C50.7163 56.856 50.2203 56.692 49.6523 56.692C48.9243 56.692 48.3643 56.968 47.9723 57.52C47.5803 58.064 47.3843 58.828 47.3843 59.812C47.3843 60.588 47.5003 61.284 47.7323 61.9C47.9723 62.508 48.2963 62.984 48.7043 63.328C49.1203 63.672 49.5883 63.844 50.1083 63.844ZM60.8678 64C60.6838 64 60.3438 63.668 59.8478 63.004C59.3518 62.332 58.7518 61.4 58.0478 60.208L59.1518 59.872C59.8158 60.88 60.3678 61.668 60.8078 62.236C61.2558 62.804 61.6518 63.216 61.9958 63.472C62.3398 63.728 62.6758 63.856 63.0038 63.856C63.0198 63.856 63.0278 63.88 63.0278 63.928C63.0278 63.976 63.0198 64 63.0038 64H60.8678ZM58.2878 56.464C59.0158 56.464 59.5798 56.6 59.9798 56.872C60.3798 57.136 60.5798 57.508 60.5798 57.988C60.5798 58.444 60.4478 58.856 60.1838 59.224C59.9278 59.592 59.5918 59.88 59.1758 60.088C58.7598 60.288 58.3238 60.388 57.8678 60.388C57.5558 60.388 57.3358 60.384 57.2078 60.376V63.028C57.2078 63.276 57.2278 63.456 57.2678 63.568C57.3078 63.68 57.3838 63.756 57.4958 63.796C57.6158 63.836 57.8038 63.856 58.0598 63.856C58.0758 63.856 58.0838 63.88 58.0838 63.928C58.0838 63.976 58.0758 64 58.0598 64C57.7958 64 57.5878 63.996 57.4358 63.988L56.5238 63.976L55.6478 63.988C55.4878 63.996 55.2718 64 54.9998 64C54.9758 64 54.9638 63.976 54.9638 63.928C54.9638 63.88 54.9758 63.856 54.9998 63.856C55.2558 63.856 55.4398 63.836 55.5518 63.796C55.6718 63.756 55.7518 63.68 55.7918 63.568C55.8398 63.448 55.8638 63.268 55.8638 63.028V57.472C55.8638 57.232 55.8438 57.056 55.8038 56.944C55.7638 56.832 55.6838 56.756 55.5638 56.716C55.4438 56.668 55.2598 56.644 55.0118 56.644C54.9958 56.644 54.9878 56.62 54.9878 56.572C54.9878 56.524 54.9958 56.5 55.0118 56.5L55.6478 56.512C56.0158 56.528 56.3078 56.536 56.5238 56.536C56.7958 56.536 57.0798 56.524 57.3758 56.5C57.4798 56.492 57.6078 56.484 57.7598 56.476C57.9198 56.468 58.0958 56.464 58.2878 56.464ZM59.2118 58.444C59.2118 57.788 59.1158 57.336 58.9238 57.088C58.7318 56.84 58.4558 56.716 58.0958 56.716C57.7758 56.716 57.5478 56.776 57.4118 56.896C57.2758 57.016 57.2078 57.216 57.2078 57.496V60.04C57.3998 60.072 57.6318 60.088 57.9038 60.088C58.3678 60.088 58.6998 59.96 58.8998 59.704C59.1078 59.44 59.2118 59.02 59.2118 58.444ZM64.5663 56.776C63.6143 56.776 62.9303 57.396 62.5143 58.636C62.5063 58.66 62.4823 58.672 62.4423 58.672C62.4023 58.664 62.3823 58.648 62.3823 58.624C62.4143 58.304 62.4503 57.892 62.4903 57.388C62.5303 56.876 62.5503 56.492 62.5503 56.236C62.5503 56.196 62.5703 56.176 62.6103 56.176C62.6583 56.176 62.6823 56.196 62.6823 56.236C62.6823 56.412 62.9103 56.5 63.3663 56.5C64.0543 56.524 64.8583 56.536 65.7783 56.536C66.2503 56.536 66.7503 56.528 67.2783 56.512L68.0943 56.5C68.3983 56.5 68.6183 56.48 68.7543 56.44C68.8983 56.4 68.9903 56.32 69.0303 56.2C69.0383 56.168 69.0623 56.152 69.1023 56.152C69.1503 56.152 69.1743 56.168 69.1743 56.2C69.1503 56.44 69.1223 56.824 69.0903 57.352C69.0663 57.88 69.0543 58.304 69.0543 58.624C69.0543 58.648 69.0343 58.66 68.9943 58.66C68.9543 58.66 68.9303 58.648 68.9223 58.624C68.8023 58.008 68.5783 57.548 68.2503 57.244C67.9223 56.932 67.5183 56.776 67.0383 56.776C66.8063 56.776 66.6503 56.828 66.5703 56.932C66.4983 57.028 66.4623 57.216 66.4623 57.496V63.028C66.4623 63.276 66.4863 63.456 66.5343 63.568C66.5823 63.68 66.6743 63.756 66.8103 63.796C66.9463 63.836 67.1623 63.856 67.4583 63.856C67.4823 63.856 67.4943 63.88 67.4943 63.928C67.4943 63.976 67.4823 64 67.4583 64C67.1703 64 66.9423 63.996 66.7743 63.988L65.7783 63.976L64.8063 63.988C64.6383 63.996 64.4063 64 64.1103 64C64.0863 64 64.0743 63.976 64.0743 63.928C64.0743 63.88 64.0863 63.856 64.1103 63.856C64.3983 63.856 64.6103 63.836 64.7463 63.796C64.8903 63.756 64.9863 63.68 65.0343 63.568C65.0903 63.448 65.1183 63.268 65.1183 63.028V57.472C65.1183 57.2 65.0823 57.016 65.0103 56.92C64.9383 56.824 64.7903 56.776 64.5663 56.776Z" fill="white"/>
<defs>
<clipPath id="clip0_135_108">
<rect width="30" height="30" fill="white" transform="translate(26 15)"/>
</clipPath>
</defs>
</svg>
