<svg xmlns="http://www.w3.org/2000/svg" width="1920" height="877" viewBox="0 0 1920 877" fill="none"><path d="M0 475.5V877H456C456 559.4 151.167 476.666 0 475.5Z" fill="url(#paint0_linear_289_49)"></path><path d="M1920 401.5L1920 -0.000488281L1464 -0.000448416C1464 317.6 1768.83 400.333 1920 401.5Z" fill="url(#paint1_linear_289_49)"></path><path d="M0 378.999V876.999H566C566 483.064 187.632 380.446 0 378.999Z" fill="url(#paint2_linear_289_49)"></path><path d="M1920 498L1920 -0.000488281L1354 -0.0004388C1354 393.934 1732.37 496.552 1920 498Z" fill="url(#paint3_linear_289_49)"></path><defs><linearGradient id="paint0_linear_289_49" x1="228" y1="529" x2="228" y2="877" gradientUnits="userSpaceOnUse"><stop stop-color="#AB6034" stop-opacity="0"></stop><stop offset="1" stop-color="#AB6034" stop-opacity="0.15"></stop></linearGradient><linearGradient id="paint1_linear_289_49" x1="1692" y1="348" x2="1692" y2="-0.000468349" gradientUnits="userSpaceOnUse"><stop stop-color="#AB6034" stop-opacity="0"></stop><stop offset="1" stop-color="#AB6034" stop-opacity="0.15"></stop></linearGradient><linearGradient id="paint2_linear_289_49" x1="283" y1="445.358" x2="283" y2="876.999" gradientUnits="userSpaceOnUse"><stop stop-color="#AB6034" stop-opacity="0"></stop><stop offset="1" stop-color="#AB6034" stop-opacity="0.15"></stop></linearGradient><linearGradient id="paint3_linear_289_49" x1="1637" y1="431.641" x2="1637" y2="-0.000463541" gradientUnits="userSpaceOnUse"><stop stop-color="#AB6034" stop-opacity="0"></stop><stop offset="1" stop-color="#AB6034" stop-opacity="0.15"></stop></linearGradient></defs></svg>